<svg width="64" height="64" viewBox="0 0 64 64" fill="none" xmlns="http://www.w3.org/2000/svg">
<path d="M51.61 15.992V15.994C51.61 17.982 49.998 19.592 48.012 19.592C46.026 19.592 44.414 17.98 44.414 15.994C44.414 14.006 46.026 12.396 48.012 12.396C49.998 12.398 51.608 14.006 51.61 15.992ZM32 41.998C26.478 41.998 22.002 37.522 22.002 32C22.002 26.478 26.478 22.002 32 22.002C37.522 22.002 41.998 26.478 41.998 32C41.998 37.52 37.524 41.996 32.004 41.996H32.002L32 41.998ZM32 16.6C23.494 16.6 16.6 23.496 16.6 32C16.6 40.504 23.496 47.4 32 47.4C40.506 47.4 47.4 40.504 47.4 32C47.4 32 47.4 32 47.4 31.998C47.4 23.494 40.506 16.598 32 16.598C32 16.598 32 16.598 31.998 16.598L32 16.6ZM32 7.408C40.006 7.408 40.96 7.448 44.122 7.586C46.128 7.61 48.036 7.99 49.802 8.662L49.688 8.624C52.316 9.648 54.356 11.688 55.358 14.248L55.382 14.316C56.014 15.968 56.39 17.878 56.414 19.872V19.882C56.556 23.046 56.588 23.996 56.588 32.004C56.588 40.012 56.55 40.964 56.404 44.126C56.366 46.134 55.984 48.042 55.314 49.808L55.352 49.692C54.836 51.044 54.072 52.196 53.106 53.144L53.104 53.146C52.158 54.114 51.006 54.878 49.72 55.364L49.656 55.386C47.998 56.018 46.082 56.394 44.08 56.418H44.07C40.886 56.56 39.948 56.592 31.926 56.592C23.9 56.592 22.964 56.554 19.782 56.408C17.766 56.37 15.85 55.988 14.076 55.318L14.194 55.356C12.842 54.848 11.69 54.082 10.75 53.112L10.748 53.11C9.77 52.17 9.002 51.016 8.52 49.724L8.5 49.662C7.87 48.006 7.488 46.092 7.45 44.092V44.076C7.338 40.926 7.298 39.954 7.298 31.97C7.298 23.982 7.338 23.008 7.45 19.82C7.488 17.806 7.868 15.892 8.538 14.12L8.5 14.238C8.994 12.88 9.764 11.724 10.746 10.79L10.75 10.786C11.686 9.802 12.84 9.036 14.134 8.562L14.196 8.542C15.842 7.906 17.744 7.524 19.732 7.49H19.746C22.932 7.378 23.87 7.34 31.89 7.34L32 7.408ZM32 2.008C23.852 2.008 22.836 2.046 19.636 2.188C17.006 2.244 14.512 2.752 12.204 3.634L12.356 3.584C10.276 4.378 8.504 5.556 7.044 7.04L7.042 7.042C5.552 8.502 4.376 10.276 3.616 12.256L3.582 12.356C2.75 14.512 2.242 17.008 2.188 19.612V19.636C2.038 22.836 2.008 23.852 2.008 32C2.008 40.148 2.046 41.164 2.188 44.364C2.244 46.994 2.752 49.488 3.634 51.796L3.584 51.644C5.176 55.686 8.314 58.824 12.252 60.38L12.356 60.416C14.512 61.246 17.008 61.754 19.612 61.81H19.636C22.836 61.96 23.852 61.99 32 61.99C40.148 61.99 41.164 61.952 44.364 61.81C46.994 61.752 49.488 61.246 51.796 60.364L51.644 60.416C55.686 58.824 58.824 55.686 60.38 51.748L60.416 51.644C61.248 49.488 61.754 46.992 61.81 44.388V44.364C61.96 41.164 61.99 40.148 61.99 32C61.99 23.852 61.952 22.836 61.81 19.636C61.752 17.006 61.246 14.512 60.364 12.204L60.416 12.356C59.62 10.276 58.444 8.504 56.958 7.044L56.956 7.042C55.496 5.552 53.722 4.376 51.742 3.616L51.642 3.582C49.486 2.75 46.99 2.242 44.386 2.188H44.362C41.162 2.038 40.146 2.008 31.998 2.008H32Z" fill="white"/>
</svg>
