<svg width="64" height="64" viewBox="0 0 64 64" fill="none" xmlns="http://www.w3.org/2000/svg">
<path d="M53.152 10.726C47.772 5.346 40.34 2.018 32.13 2.018C15.712 2.018 2.4 15.328 2.4 31.748C2.4 37.212 3.874 42.33 6.444 46.73L6.368 46.59L2.15 61.994L17.908 57.86C22.01 60.138 26.904 61.478 32.112 61.478H32.124C48.542 61.472 61.848 48.16 61.848 31.742C61.848 23.536 58.524 16.108 53.15 10.728L53.152 10.726ZM32.124 56.456H32.114C27.476 56.456 23.134 55.176 19.428 52.95L19.54 53.012L18.638 52.478L9.288 54.932L11.782 45.814L11.194 44.88C8.824 41.156 7.416 36.618 7.416 31.75C7.416 18.106 18.478 7.044 32.122 7.044C45.766 7.044 56.828 18.106 56.828 31.75C56.828 45.394 45.77 56.456 32.124 56.456ZM45.676 37.954C44.934 37.582 41.282 35.788 40.602 35.538C39.92 35.29 39.424 35.168 38.928 35.912C38.436 36.654 37.012 38.326 36.578 38.822C36.146 39.32 35.71 39.38 34.968 39.01C32.668 38.078 30.692 36.836 28.974 35.306L28.994 35.324C27.396 33.844 26.026 32.15 24.92 30.282L24.864 30.178C24.432 29.436 24.818 29.034 25.188 28.664C25.522 28.332 25.932 27.796 26.302 27.364C26.594 27.006 26.844 26.596 27.034 26.156L27.046 26.122C27.132 25.948 27.182 25.746 27.182 25.53C27.182 25.268 27.108 25.024 26.98 24.816L26.984 24.822C26.796 24.45 25.312 20.794 24.694 19.306C24.09 17.858 23.476 18.056 23.022 18.032C22.59 18.012 22.094 18.008 21.598 18.008C20.808 18.028 20.106 18.384 19.622 18.934L19.62 18.938C18.016 20.46 17.02 22.606 17.02 24.984C17.02 25.036 17.02 25.09 17.022 25.142V25.134C17.284 28.068 18.384 30.702 20.076 32.848L20.052 32.818C23.26 37.576 27.536 41.382 32.554 43.946L32.742 44.032C33.838 44.528 35.242 45.058 36.678 45.512L36.976 45.594C37.86 45.874 38.878 46.036 39.934 46.036C40.54 46.036 41.136 45.982 41.712 45.88L41.65 45.888C43.788 45.442 45.562 44.152 46.644 42.39L46.662 42.356C46.992 41.624 47.184 40.77 47.184 39.872C47.184 39.502 47.152 39.14 47.09 38.788L47.096 38.826C46.912 38.516 46.416 38.332 45.672 37.958L45.676 37.954Z" fill="white"/>
</svg>
