<svg width="64" height="64" viewBox="0 0 64 64" fill="none" xmlns="http://www.w3.org/2000/svg">
<g clip-path="url(#clip0_0_3)">
<g clip-path="url(#clip1_0_3)">
<path d="M59 0H5C2.2375 0 0 2.2375 0 5V59C0 61.7625 2.2375 64 5 64H59C61.7625 64 64 61.7625 64 59V5C64 2.2375 61.7625 0 59 0ZM60.25 59C60.25 59.6875 59.6875 60.25 59 60.25H5C4.3125 60.25 3.75 59.6875 3.75 59V5C3.75 4.3125 4.3125 3.75 5 3.75H59C59.6875 3.75 60.25 4.3125 60.25 5V59Z" fill="white"/>
<path d="M36.225 21.0875C37.5125 21.0875 38.8875 21.4875 38.8875 21.4875L39.7125 16.5875C39.7125 16.5875 37.9625 15.9875 33.7875 15.9875C31.225 15.9875 29.7375 16.9625 28.65 18.4C27.625 19.7625 27.5875 21.95 27.5875 23.3625V26.575H24.275V31.3625H27.5875V47.9875H33.7875V31.3625H38.7L39.0625 26.575H33.7875V22.8375C33.7875 21.55 34.9375 21.0875 36.225 21.0875Z" fill="white"/>
</g>
</g>
<defs>
<clipPath id="clip0_0_3">
<rect width="64" height="64" fill="white"/>
</clipPath>
<clipPath id="clip1_0_3">
<rect width="64" height="64" fill="white"/>
</clipPath>
</defs>
</svg>
